<?xml version="1.0" encoding="utf-8"?>
<!-- Generator: Adobe Illustrator 24.2.1, SVG Export Plug-In . SVG Version: 6.00 Build 0)  -->
<svg version="1.1" xmlns="http://www.w3.org/2000/svg" xmlns:xlink="http://www.w3.org/1999/xlink" x="0px" y="0px"
	 viewBox="0 0 684 396" style="enable-background:new 0 0 684 396;" xml:space="preserve">
<style type="text/css">
	.st0{clip-path:url(#SVGID_2_);}
	.st1{fill:#0081C5;}
	.st2{fill:#20225C;}
</style>
<g id="Background_xA0_Image_1_">
	<g>
		<defs>
			<rect id="SVGID_1_" x="1.22" y="1.64" width="681.55" height="389.46"/>
		</defs>
		<clipPath id="SVGID_2_">
			<use xlink:href="#SVGID_1_"  style="overflow:visible;"/>
		</clipPath>
		<g class="st0">
			<path class="st1" d="M396.94,110.29c-2.29-1.03-4.67-1.74-7.2-1.79c-4.19-0.08-6.83,2.36-8.69,5.72
				c-2.35,4.24-1.88,8.66-0.34,13.07c1.23,3.53,3.48,6.54,5.09,9.87c4.82,9.97,7.83,20.4,8.11,31.54c0.2,7.75-1.04,15.17-4.87,22.03
				c-2.76,4.92-6.88,8.52-11.37,11.75c-7.67,5.51-16.21,8.79-25.63,9.68c-8.13,0.77-16.03-0.32-23.7-3.1
				c-0.73-0.26-1.28-0.52-1.28-1.53c0.04-12.08,0.03-24.17,0.03-36.25c0-0.12,0.03-0.25,0.06-0.52c0.86,0.48,1.69,0.9,2.48,1.39
				c5.63,3.48,12.28,1.31,16.01-1.65c3.33-2.64,4.41-7.45,2.73-11.44c-3.63-8.59-7.26-17.17-10.41-25.95
				c-1.82-5.06-2.59-10.31-2.95-15.65c-0.44-6.61,0.23-13.11,2.67-19.26c5.84-14.76,16.84-23.66,32.15-27.22
				c8.69-2.02,17.38-1.19,25.93,1.19c0.74,0.21,1.08,0.49,1.09,1.34c0.07,11.83,0.18,23.66,0.27,35.49
				C397.1,109.42,397.22,109.84,396.94,110.29"/>
			<path class="st2" d="M326.36,170.47h-8.06c-7.84,0-15.67-0.02-23.51,0.02c-1.12,0.01-1.76-0.28-2.34-1.3
				c-4.67-8.21-9.42-16.37-14.16-24.54c-0.33-0.56-0.49-1.11-0.49-1.76c0.02-6.5,0.03-13-0.01-19.5c0-0.88,0.24-1.23,1.12-1.38
				c2.43-0.41,4.78-1.11,6.97-2.27c0.78-0.41,1.52-0.87,2.19-1.43c3.68-3.13,3.1-7.98-1.22-10.12c-2.1-1.04-4.35-1.39-6.65-1.43
				c-2.54-0.05-5.09,0.04-7.63-0.04c-1.07-0.03-1.29,0.32-1.28,1.32c0.03,21.5,0.02,43,0.02,64.51c0,1.9,0.25,1.64-1.66,1.64
				c-9.29,0.01-18.59-0.01-27.88,0.03c-1.03,0-1.31-0.27-1.31-1.3c0.03-29.21,0.03-58.42,0-87.64c0-0.96,0.22-1.26,1.22-1.26
				c16.05,0.03,32.1-0.11,48.14,0.08c8.56,0.1,16.53,2.48,23.24,8.08c9.22,7.69,13.89,23.76,2.51,36.25
				c-2.17,2.38-4.52,4.56-7.23,6.3c-0.82,0.53-0.85,0.95-0.4,1.78c6.05,11.06,12.07,22.14,18.09,33.22
				C326.11,169.9,326.18,170.09,326.36,170.47"/>
			<path class="st2" d="M403.05,155c0-12.84,0.01-25.67-0.02-38.51c0-1.03,0.15-1.41,1.32-1.4c9.29,0.06,18.59,0.05,27.88,0.01
				c1.09-0.01,1.37,0.24,1.37,1.35c-0.04,21.13-0.03,42.26-0.03,63.39c0,3.03,0.52,5.97,1.99,8.66c1.4,2.56,3.54,3.87,6.51,3.83
				c4.04-0.04,8.09,0.01,12.13-0.03c0.86-0.01,1.13,0.23,1.13,1.12c-0.03,9.34-0.03,18.67,0,28.01c0,0.9-0.28,1.1-1.13,1.1
				c-6.92-0.03-13.84,0.12-20.76-0.07c-4.15-0.12-8.03-1.68-11.8-3.39c-5.97-2.7-11.01-6.55-14.48-12.21
				c-2.82-4.59-4.09-9.63-4.11-14.97C403.02,179.58,403.05,167.29,403.05,155"/>
			<path class="st2" d="M256.38,238.24c4.83,0,9.67,0.02,14.5-0.02c0.81,0,1.18,0.11,1.16,1.06c-0.05,3.71-0.05,7.41,0,11.12
				c0.01,0.86-0.29,1.04-1.08,1.04c-9.83-0.02-19.66-0.02-29.49,0c-0.84,0-1.04-0.27-1.04-1.08c0.04-3.71,0.04-7.41,0-11.12
				c-0.01-0.86,0.29-1.03,1.08-1.02C246.47,238.26,251.43,238.24,256.38,238.24"/>
			<path class="st2" d="M286.68,205.63c0,1.81-0.01,3.47,0.01,5.13c0,0.56-0.03,0.94-0.78,0.95c-0.75,0.01-0.9-0.29-0.89-0.96
				c0.03-2.42-0.01-4.83,0.03-7.25c0.01-0.43-0.34-1.12,0.36-1.28c0.72-0.16,1.41-0.13,1.88,0.75c0.86,1.61,1.88,3.14,2.84,4.7
				c0.12,0.21,0.28,0.4,0.41,0.59c0.47-0.11,0.33-0.47,0.33-0.72c0.02-1.46,0.02-2.92,0-4.37c-0.01-0.61,0.02-1.01,0.84-1.01
				c0.8,0,0.84,0.38,0.83,0.99c-0.02,2.42,0.01,4.83-0.03,7.25c0,0.43,0.35,1.12-0.38,1.25c-0.71,0.13-1.43,0.18-1.91-0.71
				c-0.78-1.47-1.71-2.85-2.59-4.26C287.42,206.34,287.31,205.92,286.68,205.63"/>
			<path class="st2" d="M301.18,206.65c1.86-0.01,1.86-0.01,1.86,1.79c0,2.3-0.34,2.71-2.62,3.24c-2.45,0.56-4.7-0.39-5.61-2.38
				c-1.06-2.32-0.47-5.08,1.38-6.44c2.03-1.48,5.22-1.05,6.31,0.87c0.17,0.31,0.66,0.72,0.04,1c-0.45,0.2-1.11,0.58-1.46-0.03
				c-0.75-1.32-1.86-1.41-3.11-1.07c-1.34,0.37-1.73,1.49-1.82,2.7c-0.1,1.35-0.02,2.72,1.23,3.59c1.07,0.74,2.2,0.51,3.32-0.01
				c0.67-0.31,0.6-0.83,0.54-1.36c-0.07-0.67-0.62-0.37-0.98-0.43c-0.25-0.04-0.5,0-0.75-0.02c-0.49-0.04-0.44-0.41-0.44-0.74
				c0-0.34-0.03-0.71,0.46-0.71C300.1,206.65,300.64,206.65,301.18,206.65"/>
			<path class="st2" d="M244.53,211.84c-1.34-0.05-2.71-0.41-3.4-1.97c-0.15-0.34-0.55-0.89-0.05-1.05c0.46-0.15,1.14-0.55,1.59,0.3
				c0.61,1.17,1.54,1.48,2.8,1.17c0.63-0.16,1.07-0.5,1.14-1.15c0.08-0.72-0.4-1.02-1.02-1.19c-0.84-0.24-1.69-0.45-2.5-0.76
				c-1.38-0.53-2.04-1.49-1.91-2.73c0.14-1.35,1.01-1.99,2.27-2.29c1.82-0.43,3.58,0.11,4.28,1.41c0.22,0.42,0.61,1.04,0.04,1.28
				c-0.42,0.17-1.2,0.48-1.57-0.41c-0.51-1.22-1.57-1.01-2.56-0.83c-0.43,0.08-0.75,0.39-0.79,0.86c-0.03,0.48,0.26,0.8,0.68,0.94
				c0.67,0.23,1.35,0.41,2.03,0.6c2.07,0.58,3.02,1.65,2.83,3.2C248.18,210.84,246.82,211.82,244.53,211.84"/>
			<path class="st2" d="M257.66,206.94c0,1.33-0.03,2.66,0.01,3.99c0.03,0.76-0.39,0.75-0.94,0.77c-0.56,0.01-0.88-0.12-0.81-0.75
				c0.02-0.21,0-0.41,0-0.62c-0.01-3.17-0.01-3.16-3.26-2.92c-0.55,0.04-0.71,0.21-0.69,0.74c0.03,0.87-0.03,1.75,0.02,2.62
				c0.04,0.68-0.15,0.95-0.89,0.96c-0.73,0-0.9-0.25-0.89-0.93c0.03-2.58,0.03-5.16,0-7.74c-0.01-0.6,0.1-0.91,0.81-0.87
				c0.62,0.03,1.09,0.07,0.96,0.86c-0.01,0.08-0.01,0.17,0,0.25c0.09,0.85-0.4,2.16,0.22,2.46c0.87,0.43,2.1,0.16,3.17,0.18
				c0.54,0.01,0.57-0.36,0.56-0.76c0-0.67,0.02-1.33-0.01-2c-0.02-0.58-0.03-1.02,0.81-1.01c0.82,0.01,0.97,0.32,0.94,1.04
				C257.63,204.44,257.66,205.69,257.66,206.94"/>
			<path class="st2" d="M263.51,206.93c0-1.33,0.01-2.67-0.01-4c-0.01-0.51,0.13-0.77,0.7-0.75c1.33,0.05,2.67-0.02,3.99,0.09
				c1.54,0.13,2.44,1.23,2.47,2.78c0.03,1.61-0.88,2.71-2.46,2.93c-0.53,0.08-1.09,0.19-1.61,0.11c-1.18-0.17-1.47,0.36-1.32,1.4
				c0.04,0.29,0.03,0.58,0,0.87c-0.06,0.57,0.35,1.35-0.85,1.36c-1.26,0.01-0.9-0.8-0.91-1.42
				C263.49,209.17,263.51,208.05,263.51,206.93 M266.61,203.66c-0.39,0.22-1.19-0.39-1.28,0.45c-0.09,0.79-0.41,1.84,0.17,2.38
				c0.51,0.47,1.5,0.21,2.27,0.06c0.04-0.01,0.08-0.03,0.12-0.04c0.73-0.2,0.96-0.75,0.95-1.42c-0.01-0.69-0.36-1.2-1.07-1.34
				C267.41,203.67,267.03,203.69,266.61,203.66"/>
			<path class="st2" d="M272.45,206.86c0-1.25,0.03-2.5-0.01-3.74c-0.02-0.65,0.1-0.99,0.87-0.95c1.28,0.08,2.58-0.02,3.86,0.11
				c1.52,0.15,2.37,1.25,2.37,2.83c0,1.59-0.86,2.63-2.36,2.87c-0.33,0.05-0.66,0.11-0.99,0.13c-1.97,0.13-1.94,0.13-2,2.18
				c-0.01,0.5,0.47,1.34-0.65,1.4c-0.72,0.04-1.17-0.05-1.11-0.97C272.51,209.44,272.45,208.15,272.45,206.86 M274.22,204.97
				c0,1.67,0,1.67,1.19,1.68c1.68,0.01,2.36-0.44,2.35-1.52c-0.01-1.06-0.63-1.34-2.26-1.48
				C274.15,203.53,274.07,204.19,274.22,204.97"/>
			<path class="st2" d="M249.54,195.55c-1.27,0.32-2.18,0.16-2.76-1.06c-0.35-0.75-0.89-1.4-1.37-2.08
				c-0.32-0.45-0.73-0.79-1.32-0.86c-0.69-0.08-1.13,0.04-1.06,0.9c0.06,0.83-0.02,1.67,0.02,2.5c0.03,0.65-0.29,0.75-0.84,0.74
				c-0.55-0.01-0.96-0.01-0.95-0.77c0.04-2.67,0.03-5.33,0-8c-0.01-0.65,0.3-0.76,0.84-0.75c1.21,0.02,2.42-0.01,3.63,0.01
				c1.97,0.04,2.91,0.69,3.18,2.15c0.25,1.34-0.4,2.23-2.32,3.06C247.89,192.57,248.68,194.04,249.54,195.55 M244.97,187.67
				c-0.25,0-0.42,0.02-0.58,0c-0.92-0.12-1.4,0.04-1.39,1.2c0,1.15,0.47,1.33,1.4,1.21c0.16-0.02,0.33,0,0.5,0
				c1.69,0,2.3-0.34,2.2-1.28C246.94,187.34,245.77,187.74,244.97,187.67"/>
			<path class="st2" d="M284.53,189.74c0,1.69-0.02,3.37,0.01,5.06c0.01,0.6-0.1,0.9-0.81,0.9c-0.74,0-0.8-0.35-0.79-0.92
				c0.02-2.5-0.01-4.99,0.03-7.49c0.01-0.38-0.34-1.02,0.41-1.09c0.58-0.05,1.2-0.2,1.62,0.53c0.97,1.69,2.01,3.34,3.03,5.01
				c0.13,0.21,0.28,0.4,0.51,0.72c0.34-0.74,0.18-1.39,0.19-2.01c0.03-1.21,0.03-2.41,0-3.62c-0.02-0.59,0.27-0.7,0.76-0.66
				c0.39,0.03,0.87-0.12,0.86,0.56c-0.01,2.79,0,5.57,0,8.36c0,0.32-0.06,0.6-0.47,0.57c-0.58-0.04-1.22,0.22-1.64-0.52
				c-0.8-1.41-1.67-2.77-2.52-4.15c-0.28-0.45-0.57-0.9-0.86-1.34C284.75,189.68,284.64,189.71,284.53,189.74"/>
			<path class="st2" d="M272.2,195.69c1.22-3.13,2.39-6.09,3.52-9.06c0.27-0.71,0.82-0.37,1.26-0.45c0.61-0.11,0.86,0.24,1.06,0.77
				c1.01,2.59,2.06,5.16,3.08,7.75c0.11,0.28,0.6,0.78,0.05,0.91c-0.51,0.12-1.47,0.45-1.62-0.33c-0.39-2.07-1.85-1.73-3.28-1.79
				c-1.08-0.05-1.73,0.19-1.93,1.32C274.12,196.09,273.14,195.58,272.2,195.69 M275.37,192.02c0.87,0,1.57-0.01,2.26,0
				c0.39,0.01,0.54-0.15,0.4-0.52c-0.37-1-0.66-2.05-1.31-3.14C276.25,189.62,275.86,190.69,275.37,192.02"/>
			<path class="st2" d="M259.23,195.53c-1.37,0.44-2.12,0.04-2.36-1.26c-0.1-0.57-0.44-0.84-1.06-0.77c-0.49,0.05-1,0.06-1.5,0
				c-1.21-0.15-2.08,0.1-2.3,1.5c-0.16,1.01-1,0.66-1.6,0.65c-0.52-0.01-0.27-0.42-0.18-0.65c1.07-2.79,2.17-5.56,3.23-8.35
				c0.24-0.63,0.71-0.43,1.14-0.46c0.46-0.03,0.88-0.06,1.11,0.52C256.86,189.63,258.04,192.55,259.23,195.53 M254.53,188.22
				c-0.52,1.44-0.92,2.54-1.33,3.67c2.93,0.42,2.94,0.41,1.97-2.14C255.01,189.34,254.82,188.93,254.53,188.22"/>
			<path class="st2" d="M259.82,186.32c1.41-0.47,2,0.03,2.34,1.29c0.49,1.83,1.19,3.61,1.85,5.54c0.54-0.48,0.57-1.03,0.73-1.5
				c0.54-1.57,1.05-3.15,1.56-4.73c0.15-0.46,0.32-0.76,0.93-0.77c0.9-0.03,1.16,0.14,0.8,1.08c-0.97,2.56-1.87,5.15-2.76,7.75
				c-0.2,0.59-0.56,0.74-1.12,0.7c-0.52-0.04-1.04,0.1-1.28-0.64C261.88,192.13,260.84,189.24,259.82,186.32"/>
			<path class="st2" d="M271.3,190.93c0,1.33-0.03,2.66,0.01,3.99c0.02,0.63-0.25,0.79-0.81,0.76c-0.5-0.03-1,0.09-0.99-0.72
				c0.03-2.7,0.03-5.41,0-8.11c-0.01-0.83,0.55-0.63,1.02-0.68c0.59-0.06,0.81,0.16,0.79,0.77
				C271.27,188.27,271.3,189.6,271.3,190.93"/>
			<path class="st2" d="M261.52,206.98c0,1.29-0.03,2.58,0.01,3.87c0.02,0.65-0.19,0.87-0.85,0.86c-0.65-0.01-0.97-0.12-0.96-0.89
				c0.04-2.62,0.04-5.25,0-7.87c-0.01-0.75,0.36-0.77,0.92-0.78c0.6-0.01,0.92,0.09,0.89,0.8
				C261.49,204.31,261.52,205.64,261.52,206.98"/>
			<path class="st2" d="M283.04,206.86c0,1.33-0.03,2.66,0.01,4c0.02,0.67-0.21,0.85-0.86,0.85c-0.67,0-0.96-0.14-0.95-0.89
				c0.04-2.58,0.04-5.16,0-7.74c-0.01-0.73,0.25-0.89,0.94-0.91c0.76-0.02,0.9,0.28,0.88,0.95
				C283.01,204.36,283.04,205.61,283.04,206.86"/>
			<path class="st2" d="M254.8,221.68c0,1.77-0.02,3.42,0.01,5.08c0.01,0.64-0.08,0.98-0.87,0.97c-0.8-0.01-0.72-0.47-0.72-0.98
				c0-2.46-0.02-4.92,0.02-7.37c0.01-0.39-0.32-1.03,0.33-1.14c0.6-0.1,1.28-0.24,1.73,0.55c0.99,1.74,2.07,3.42,3.11,5.12
				c0.11,0.17,0.23,0.33,0.6,0.84c0-2.11,0.02-3.86-0.01-5.61c-0.02-0.66,0.12-1,0.88-0.96c0.57,0.03,0.78,0.15,0.78,0.78
				c-0.03,2.54,0.03,5.08,0.02,7.62c0,0.39,0.29,1.04-0.44,1.09c-0.62,0.05-1.29,0.25-1.74-0.55c-0.9-1.59-1.89-3.14-2.85-4.69
				C255.48,222.16,255.39,221.8,254.8,221.68"/>
			<path class="st2" d="M274.17,227.86c-1.39-0.07-2.75-0.49-3.37-2.07c-0.11-0.28-0.66-0.84,0.06-0.98
				c0.44-0.09,1.06-0.52,1.49,0.29c0.67,1.26,1.75,1.6,3.02,1.15c0.57-0.2,0.9-0.56,0.93-1.18c0.03-0.61-0.34-0.9-0.86-1.06
				c-0.95-0.3-1.91-0.56-2.85-0.91c-1.19-0.44-1.83-1.34-1.73-2.6c0.1-1.27,0.93-1.98,2.14-2.3c1.93-0.51,3.79,0.09,4.47,1.49
				c0.18,0.37,0.61,0.96,0.04,1.17c-0.45,0.16-1.23,0.51-1.59-0.37c-0.47-1.17-1.49-1.05-2.44-0.92c-0.45,0.06-0.88,0.34-0.94,0.87
				c-0.06,0.55,0.3,0.86,0.75,1.02c0.63,0.22,1.27,0.38,1.91,0.56c2.19,0.6,3.04,1.6,2.84,3.31
				C277.87,226.89,276.41,227.88,274.17,227.86"/>
			<path class="st2" d="M262.79,222.98c0-1.33,0.02-2.66-0.01-4c-0.01-0.59,0.19-0.81,0.79-0.8c1.83,0.03,3.67,0.03,5.5,0
				c0.56-0.01,0.71,0.22,0.7,0.74c-0.01,0.49-0.1,0.79-0.68,0.77c-1.16-0.03-2.34,0.06-3.49-0.03c-0.98-0.07-1.06,0.39-1.05,1.18
				c0.01,0.74,0.09,1.18,1,1.11c0.95-0.08,1.92-0.02,2.87-0.02c0.5,0,0.98-0.1,0.99,0.71c0.01,0.86-0.49,0.79-1.05,0.79
				c-0.96-0.01-1.92,0.03-2.87-0.02c-0.7-0.04-0.93,0.18-0.94,0.91c-0.02,1.88-0.05,1.88,1.83,1.88c0.96,0,1.92,0.02,2.87-0.01
				c0.56-0.02,0.71,0.23,0.71,0.75c0,0.5-0.11,0.78-0.69,0.77c-1.92-0.02-3.83-0.03-5.75,0c-0.66,0.01-0.74-0.33-0.73-0.86
				C262.81,225.56,262.79,224.27,262.79,222.98"/>
			<path class="st2" d="M303.31,225.9c-0.31-1.48-0.56-2.81-0.3-4.18c0.42-2.19,2.19-3.69,4.3-3.52c0.4,0.03,1.03-0.12,0.97,0.63
				c-0.05,0.55-0.13,1.04-0.96,0.94c-1.19-0.15-1.87,0.58-2.17,1.65c-0.29,1.01-0.27,2.07-0.02,3.09c0.28,1.09,1.03,1.72,2.19,1.63
				c0.57-0.04,0.82,0.08,0.9,0.68c0.09,0.67-0.31,0.78-0.78,0.85c-1.56,0.22-2.85-0.29-3.99-1.74c-0.12,1.17-0.26,2.12-1.47,1.88
				c-0.71-0.14-1.01-0.73-0.78-1.43C301.56,225.27,302.36,225.39,303.31,225.9"/>
			<path class="st2" d="M243.07,222.13c0,1.04,0.05,2.08-0.01,3.12c-0.04,0.79,0.27,1,1.01,0.96c1.04-0.05,2.08,0.01,3.12-0.02
				c0.55-0.02,0.73,0.2,0.72,0.73c-0.01,0.47-0.08,0.79-0.68,0.78c-1.75-0.02-3.49-0.02-5.24,0c-0.58,0.01-0.69-0.27-0.69-0.77
				c0.01-2.66,0.03-5.32-0.01-7.98c-0.01-0.75,0.39-0.75,0.94-0.78c0.65-0.04,0.89,0.16,0.86,0.83
				C243.03,220.05,243.07,221.09,243.07,222.13"/>
			<path class="st2" d="M294.17,222.98c0-1.33,0.04-2.66-0.01-3.99c-0.03-0.71,0.29-0.81,0.89-0.81c0.61,0,0.91,0.13,0.89,0.82
				c-0.04,2.08,0.02,4.15-0.03,6.23c-0.02,0.76,0.22,1.03,0.98,0.98c1.04-0.06,2.08,0,3.12-0.02c0.52-0.01,0.74,0.15,0.75,0.71
				c0,0.58-0.18,0.82-0.78,0.81c-1.66-0.03-3.33-0.04-4.99,0c-0.68,0.02-0.85-0.25-0.83-0.87
				C294.19,225.55,294.17,224.27,294.17,222.98"/>
			<path class="st2" d="M284.53,222.94c0-1.21,0.02-2.41-0.01-3.62c-0.02-0.68-0.04-1.16,0.94-1.16c0.94,0,0.84,0.5,0.84,1.1
				c-0.01,2,0.03,3.99-0.02,5.99c-0.02,0.78,0.22,1.02,0.99,0.97c0.99-0.06,2,0,2.99-0.02c0.53-0.01,0.85,0.06,0.84,0.72
				c-0.02,0.58-0.17,0.81-0.78,0.8c-1.66-0.03-3.33-0.04-4.99,0c-0.71,0.02-0.82-0.32-0.8-0.91
				C284.55,225.52,284.53,224.23,284.53,222.94"/>
			<path class="st2" d="M309.09,229.2c1.93-3.67,1.97-7.23,0.02-10.88c0.8-0.37,1.35-0.11,1.75,0.67c1.69,3.25,1.56,6.47-0.12,9.67
				C310.37,229.35,309.84,229.42,309.09,229.2"/>
			<path class="st2" d="M283.44,218.27c-1.94,3.7-1.96,7.3,0,10.91c-0.78,0.3-1.31,0.12-1.69-0.59c-1.76-3.27-1.67-6.53,0.06-9.77
				C282.17,218.12,282.23,218.15,283.44,218.27"/>
			<path class="st2" d="M251.23,222.99c0,1.29-0.03,2.58,0.01,3.87c0.02,0.66-0.2,0.86-0.85,0.86c-0.67,0-0.96-0.13-0.95-0.89
				c0.04-2.62,0.04-5.25,0-7.87c-0.01-0.74,0.34-0.77,0.91-0.78c0.59-0.01,0.92,0.09,0.9,0.81
				C251.19,220.32,251.23,221.66,251.23,222.99"/>
			<path class="st2" d="M293.78,226.6c-0.01,0.78-0.44,1.25-1.13,1.27c-0.65,0.02-1.1-0.45-1.12-1.11c-0.02-0.72,0.4-1.22,1.12-1.24
				C293.31,225.5,293.68,225.96,293.78,226.6"/>
		</g>
	</g>
</g>
<g id="Group_1_1_">
	<g id="inside_lid_xA0_Image_1_">
	</g>
	<g id="Scan_this_QR_code_for__step_by_step_instructions__on_how_to_mak_3_">
	</g>
	<g id="Cappucinno_x21_">
	</g>
	<g id="Scan_this_QR_code_for__step_by_step_instructions__on_how_to_mak_2_">
	</g>
	<g id="BlackCoffee_x21_">
	</g>
	<g id="QuickReview">
	</g>
	<g id="qr-code_-_cappucino_xA0_Image_1_">
	</g>
	<g id="qr-code-_black_coffee_xA0_Image_1_">
	</g>
	<g id="_x31_24-1245978_x5F_transparent-background-doodle-arrow_xA0_Image_1_">
	</g>
	<g id="_x31_24-1245978_x5F_transparent-background-doodle-arrow_copy_xA0_Image_1_">
	</g>
</g>
</svg>
